{"title":"The Conjuring 2013 READNFO VODRiP XViD UNiQUE","uid":8774859,"size":1499230547,"categoryP":"video","categoryS":"movies","magnet":"?xt=urn:btih:34aee8c961da29d73fa69831d9cad93c20710bc0&amp;dn=The+Conjuring+2013+READNFO+VODRiP+XViD+UNiQUE&amp;tr=udp%3A%2F%2Ftracker.openbittorrent.com%3A80&amp;tr=udp%3A%2F%2Fopen.demonii.com%3A1337&amp;tr=udp%3A%2F%2Ftracker.coppersurfer.tk%3A6969&amp;tr=udp%3A%2F%2Fexodus.desync.com%3A6969","seeders":5,"leechers":1,"uploader":"xxxlavalxxx","files":-1,"time":1375529345,"description":" &lt;a href=&quot;\nhttp://www.imdb.com/title/tt1457767/&quot; rel=&quot;nofollow&quot; target=&quot;_NEW&quot;&gt;\nhttp://www.imdb.com/title/tt1457767/&lt;/a&gt;\n\n\nParanormal investigators Ed and Lorraine Warren work to help a family terrorized by a dark presence in their farmhouse. \nIn 1971, Carolyn and Roger Parren move their family into a dilapidated Rhode Island farm house and soon strange things start happening around it with escalating nightmarish terror. In desperation, Carolyn contacts the noted paranormal investigators, Ed and Lorraine Warren, to examine the house. What the Warrens discover is a whole area steeped in a satanic haunting that is now targeting the Parren family wherever they go. To stop this evil, the Warrens will have to call upon all their skills and spiritual strength to defeat this spectral menace at its source that threatens to destroy everyone involved. \n\n\n\nDirector:\n James Wan \n\nWriters:\n Chad Hayes, Carey Hayes \n\nStars:\n Vera Farmiga, Patrick Wilson, Lili Taylor \n\nGenres:\n  Biography |  Horror |  Thriller \n\nCountry:\n USA \n\nLanguage:\n English \n\n\n\n Format                                   : AVI\n Format/Info                              : Audio Video Interleave\n File size                                : 1.39 GiB\n Duration                                 : 1h 47mn\n Overall bit rate                         : 1 852 Kbps\n Writing application                      : VirtualDubMod 1.5.10.2 (build 2540/release)\n Writing library                          : VirtualDubMod build 2540/release\n\n Video\n ID                                       : 0\n Format                                   : MPEG-4 Visual\n Format profile                           : Advanced Simple@L5\n Format settings, BVOP                    : 2\n Format settings, QPel                    : No\n Format settings, GMC                     : No warppoints\n Format settings, Matrix                  : Default (H.263)\n Muxing mode                              : Packed bitstream\n Codec ID                                 : XVID\n Codec ID/Hint                            : XviD\n Duration                                 : 1h 47mn\n Bit rate                                 : 1 714 Kbps\n Width                                    : 720 pixels\n Height                                   : 288 pixels\n Display aspect ratio                     : 2.500\n Frame rate                               : 25.000 fps\n Color space                              : YUV\n Chroma subsampling                       : 4:2:0\n Bit depth                                : 8 bits\n Scan type                                : Progressive\n Compression mode                         : Lossy\n Bits/(Pixel*Frame)                       : 0.331\n Stream size                              : 1.29 GiB (93%)\n Writing library                          : XviD 64\n\n Audio\n ID                                       : 1\n Format                                   : MPEG Audio\n Format version                           : Version 1\n Format profile                           : Layer 3\n Mode                                     : Joint stereo\n Mode extension                           : MS Stereo\n Codec ID                                 : 55\n Codec ID/Hint                            : MP3\n Duration                                 : 1h 47mn\n Bit rate mode                            : Constant\n Bit rate                                 : 128 Kbps\n Channel(s)                               : 2 channels\n Sampling rate                            : 44.1 KHz\n Compression mode                         : Lossy\n Stream size                              : 98.3 MiB (7%)\n Alignment                                : Split accross interleaves\n Interleave, duration                     : 40 ms (1.00 video frame)\n Interleave, preload duration             : 500 ms\n\nSource Used        The.Conjuring.2013.WEB-DL.X264 MP3 - SmY               - Thanks\n\n\nscreens\n\n\n    &lt;a href=&quot;\thttp://addpix.net/viewer.php?file=47324546004198457565.jpg&quot; rel=&quot;nofollow&quot; target=&quot;_NEW&quot;&gt;\thttp://addpix.net/viewer.php?file=47324546004198457565.jpg&lt;/a&gt;\n    &lt;a href=&quot;\thttp://addpix.net/viewer.php?file=38321375174777348454.jpg&quot; rel=&quot;nofollow&quot; target=&quot;_NEW&quot;&gt;\thttp://addpix.net/viewer.php?file=38321375174777348454.jpg&lt;/a&gt;\n    &lt;a href=&quot;\thttp://addpix.net/viewer.php?file=04106176328275766327.jpg&quot; rel=&quot;nofollow&quot; target=&quot;_NEW&quot;&gt;\thttp://addpix.net/viewer.php?file=04106176328275766327.jpg&lt;/a&gt;\n    &lt;a href=&quot;\thttp://addpix.net/viewer.php?file=55664118585820664897.jpg&quot; rel=&quot;nofollow&quot; target=&quot;_NEW&quot;&gt;\thttp://addpix.net/viewer.php?file=55664118585820664897.jpg&lt;/a&gt;","torrent":{"xt":"urn:btih:34aee8c961da29d73fa69831d9cad93c20710bc0","amp;dn":"The+Conjuring+2013+READNFO+VODRiP+XViD+UNiQUE","amp;tr":["udp%3A%2F%2Ftracker.openbittorrent.com%3A80","udp%3A%2F%2Fopen.demonii.com%3A1337","udp%3A%2F%2Ftracker.coppersurfer.tk%3A6969","udp%3A%2F%2Fexodus.desync.com%3A6969"],"infoHash":"34aee8c961da29d73fa69831d9cad93c20710bc0","infoHashBuffer":{"type":"Buffer","data":[52,174,232,201,97,218,41,215,63,166,152,49,217,202,217,60,32,113,11,192]},"announce":[],"urlList":[]}}